<svg width="512" height="512" viewBox="0 0 512 512" xmlns="http://www.w3.org/2000/svg">
  <rect width="512" height="512" fill="#00e676"/>
  <path fill="#ffffff" d="M256,48C141.1,48,48,141.1,48,256s93.1,208,208,208,208-93.1,208-208S370.9,48,256,48Zm0,368A160,160,0,1,1,416,256,160.2,160.2,0,0,1,256,416Z"/>
  <path fill="#ffffff" d="M272,258.3V128a16,16,0,0,0-32,0V264a16,16,0,0,0,16,16h96a16,16,0,0,0,0-32Z"/>
</svg>
<svg width="512" height="512" viewBox="0 0 512 512" xmlns="http://www.w3.org/2000/svg">
  <rect width="512" height="512" fill="#00e676"/>
  <path fill="#ffffff" d="M256,48C141.1,48,48,141.1,48,256s93.1,208,208,208,208-93.1,208-208S370.9,48,256,48Zm0,368A160,160,0,1,1,416,256,160.2,160.2,0,0,1,256,416Z"/>
  <path fill="#ffffff" d="M272,258.3V128a16,16,0,0,0-32,0V264a16,16,0,0,0,16,16h96a16,16,0,0,0,0-32Z"/>
</svg>
